<svg xmlns="http://www.w3.org/2000/svg" xmlns:xlink="http://www.w3.org/1999/xlink" width="1080" zoomAndPan="magnify" viewBox="0 0 810 809.999993" height="1080" preserveAspectRatio="xMidYMid meet" version="1.2"><defs><clipPath id="d6c1d7e579"><path d="M 63.457031 63.457031 L 746.707031 63.457031 L 746.707031 746.707031 L 63.457031 746.707031 Z M 63.457031 63.457031 "/></clipPath></defs><g id="a379483925"><g clip-rule="nonzero" clip-path="url(#d6c1d7e579)"><path style=" stroke:none;fill-rule:nonzero;fill:#46c143;fill-opacity:1;" d="M 746.707031 405.289062 C 746.707031 593.796875 593.625 746.8125 405.082031 746.8125 C 216.300781 746.8125 63.457031 593.796875 63.457031 405.289062 C 63.457031 216.472656 216.300781 63.457031 405.082031 63.457031 C 593.625 63.457031 746.707031 216.472656 746.707031 405.289062 Z M 746.707031 405.289062 "/></g><path style=" stroke:none;fill-rule:nonzero;fill:#ffffff;fill-opacity:1;" d="M 503.199219 273.832031 C 503.199219 273.832031 405.664062 397.535156 362.414062 452.261719 C 335.699219 424.417969 306.558594 394.082031 306.558594 394.082031 C 288.828125 375.601562 259.585938 375.089844 241 392.785156 C 222.65625 410.414062 222.039062 439.828125 239.667969 458.207031 L 332.417969 554.785156 C 341.644531 564.382812 354.796875 569.679688 368.121094 568.996094 C 381.511719 568.347656 393.84375 562.027344 402.179688 551.539062 L 575.894531 331.394531 C 591.78125 311.308594 588.363281 282.097656 568.242188 266.382812 C 548.054688 250.429688 518.980469 254.015625 503.199219 273.832031 Z M 503.199219 273.832031 "/><path style="fill:none;stroke-width:4;stroke-linecap:butt;stroke-linejoin:miter;stroke:#46c143;stroke-opacity:1;stroke-miterlimit:4;" d="M 0.0000704973 1.997545 L 345.599046 1.997545 " transform="matrix(0.75,0,0,0.75,240.972603,610.064341)"/></g></svg>