<svg xmlns="http://www.w3.org/2000/svg" xmlns:xlink="http://www.w3.org/1999/xlink" width="1080" zoomAndPan="magnify" viewBox="0 0 810 809.999993" height="1080" preserveAspectRatio="xMidYMid meet" version="1.2"><defs><clipPath id="9242340350"><path d="M 63.457031 63.457031 L 746.707031 63.457031 L 746.707031 746.707031 L 63.457031 746.707031 Z M 63.457031 63.457031 "/></clipPath></defs><g id="312828d738"><g clip-rule="nonzero" clip-path="url(#9242340350)"><path style=" stroke:none;fill-rule:evenodd;fill:#000000;fill-opacity:1;" d="M 405.082031 63.480469 C 593.46875 63.480469 746.707031 216.71875 746.707031 405.082031 C 746.707031 593.449219 593.46875 746.6875 405.082031 746.6875 C 216.710938 746.6875 63.457031 593.449219 63.457031 405.082031 C 63.457031 216.71875 216.710938 63.480469 405.082031 63.480469 Z M 498.695312 271.054688 L 405.085938 364.664062 L 311.476562 271.046875 C 300.316406 259.886719 282.222656 259.878906 271.054688 271.046875 C 259.898438 282.203125 259.898438 300.308594 271.054688 311.464844 L 364.664062 405.082031 L 271.046875 498.695312 C 259.890625 509.859375 259.890625 527.953125 271.046875 539.113281 C 282.222656 550.289062 300.308594 550.28125 311.476562 539.121094 L 405.085938 445.503906 L 498.695312 539.113281 C 509.851562 550.269531 527.957031 550.28125 539.113281 539.121094 C 550.289062 527.945312 550.269531 509.851562 539.113281 498.695312 L 445.503906 405.082031 L 539.113281 311.472656 C 550.269531 300.328125 550.289062 282.222656 539.113281 271.054688 C 527.957031 259.886719 509.851562 259.898438 498.695312 271.054688 Z M 498.695312 271.054688 "/></g></g></svg>