<svg xmlns="http://www.w3.org/2000/svg" xmlns:xlink="http://www.w3.org/1999/xlink" width="1080" zoomAndPan="magnify" viewBox="0 0 810 809.999993" height="1080" preserveAspectRatio="xMidYMid meet" version="1.2"><defs><clipPath id="63005f79e7"><path d="M 109.140625 63.457031 L 700 63.457031 L 700 746.707031 L 109.140625 746.707031 Z M 109.140625 63.457031 "/></clipPath></defs><g id="5ced18b15c"><g clip-rule="nonzero" clip-path="url(#63005f79e7)"><path style=" stroke:none;fill-rule:nonzero;fill:#000000;fill-opacity:1;" d="M 652.71875 137.429688 L 554.261719 137.429688 L 554.261719 123.371094 C 554.261719 90.394531 527.4375 63.566406 494.464844 63.566406 L 314.804688 63.566406 C 281.832031 63.566406 255.011719 90.394531 255.011719 123.371094 L 255.011719 137.429688 L 156.550781 137.429688 C 130.757812 137.429688 109.765625 158.421875 109.765625 184.21875 L 109.765625 206.402344 C 109.765625 230.550781 128.15625 250.480469 151.65625 252.9375 L 199.828125 675.765625 C 204.421875 716.144531 238.539062 746.59375 279.175781 746.59375 L 530.085938 746.59375 C 570.722656 746.59375 604.839844 716.144531 609.433594 675.765625 L 657.609375 252.9375 C 681.113281 250.488281 699.496094 230.550781 699.496094 206.402344 L 699.496094 184.21875 C 699.496094 158.421875 678.503906 137.429688 652.710938 137.429688 Z M 285.378906 123.371094 C 285.378906 107.132812 298.578125 93.929688 314.8125 93.929688 L 494.472656 93.929688 C 510.707031 93.929688 523.90625 107.132812 523.90625 123.371094 L 523.90625 137.429688 L 285.378906 137.429688 Z M 579.277344 672.324219 C 576.429688 697.355469 555.285156 716.226562 530.101562 716.226562 L 279.191406 716.226562 C 254.007812 716.226562 232.863281 697.355469 230.015625 672.324219 L 182.265625 253.195312 L 627.035156 253.195312 L 579.285156 672.324219 Z M 669.152344 206.402344 C 669.152344 215.457031 661.78125 222.832031 652.726562 222.832031 L 156.550781 222.832031 C 147.496094 222.832031 140.125 215.457031 140.125 206.402344 L 140.125 184.21875 C 140.125 175.167969 147.496094 167.796875 156.550781 167.796875 L 652.710938 167.796875 C 661.765625 167.796875 669.136719 175.167969 669.136719 184.21875 L 669.136719 206.402344 Z M 669.152344 206.402344 "/></g><path style=" stroke:none;fill-rule:nonzero;fill:#000000;fill-opacity:1;" d="M 404.636719 634.046875 C 413.015625 634.046875 419.816406 627.246094 419.816406 618.863281 L 419.816406 350.558594 C 419.816406 342.179688 413.015625 335.375 404.636719 335.375 C 396.253906 335.375 389.453125 342.179688 389.453125 350.558594 L 389.453125 618.863281 C 389.453125 627.246094 396.253906 634.046875 404.636719 634.046875 Z M 404.636719 634.046875 "/><path style=" stroke:none;fill-rule:nonzero;fill:#000000;fill-opacity:1;" d="M 495.382812 633.34375 C 495.882812 633.394531 496.386719 633.417969 496.871094 633.417969 C 504.597656 633.417969 511.199219 627.558594 511.960938 619.707031 L 537.964844 352.664062 C 538.777344 344.3125 532.671875 336.886719 524.332031 336.074219 C 515.867188 335.21875 508.558594 341.367188 507.746094 349.710938 L 481.742188 616.753906 C 480.929688 625.105469 487.035156 632.53125 495.375 633.34375 Z M 495.382812 633.34375 "/><path style=" stroke:none;fill-rule:nonzero;fill:#000000;fill-opacity:1;" d="M 312.398438 633.417969 C 312.886719 633.417969 313.386719 633.394531 313.886719 633.34375 C 322.230469 632.539062 328.332031 625.105469 327.519531 616.753906 L 301.515625 349.710938 C 300.703125 341.367188 293.394531 335.226562 284.929688 336.074219 C 276.589844 336.878906 270.488281 344.3125 271.296875 352.664062 L 297.300781 619.707031 C 298.070312 627.550781 304.671875 633.417969 312.390625 633.417969 Z M 312.398438 633.417969 "/><path style="fill:none;stroke-width:4;stroke-linecap:butt;stroke-linejoin:miter;stroke:#000000;stroke-opacity:1;stroke-miterlimit:4;" d="M -0.00206953 2.000022 L 345.602115 2.000022 " transform="matrix(0.75,0,0,0.75,275.39999,728.999983)"/></g></svg>